<?xml version="1.0" encoding="UTF-8" standalone="no"?><!DOCTYPE svg PUBLIC "-//W3C//DTD SVG 1.1//EN" "http://www.w3.org/Graphics/SVG/1.1/DTD/svg11.dtd"><svg width="100%" height="100%" viewBox="0 0 335 339" version="1.1" xmlns="http://www.w3.org/2000/svg" xmlns:xlink="http://www.w3.org/1999/xlink" xml:space="preserve" xmlns:serif="http://www.serif.com/" style="fill-rule:evenodd;clip-rule:evenodd;stroke-linejoin:round;stroke-miterlimit:2;"><path d="M185.536,5.235c0.297,0.035 0.52,0.289 0.516,0.587c-0.003,0.299 -0.232,0.547 -0.529,0.575c-53.253,5.624 -100.387,40.828 -117.443,93.773c-23.287,72.287 18.256,150.449 92.712,174.434c64.281,20.708 132.212,-5.691 164.566,-59.814c0.328,-0.58 1.039,-0.822 1.653,-0.562c0.614,0.26 0.935,0.939 0.746,1.578c-0.399,1.413 -0.832,2.82 -1.285,4.226c-27.918,86.664 -120.944,134.358 -207.609,106.44c-86.664,-27.918 -134.358,-120.945 -106.44,-207.609c24.232,-75.222 97.515,-121.085 173.113,-113.628Z" style="fill:#ece8ea;"/><path d="M186.059,0.821c-77.722,-7.667 -152.981,39.43 -177.866,116.679c-28.671,88.999 20.309,184.532 109.308,213.202c88.999,28.671 184.531,-20.309 213.202,-109.308c0.467,-1.45 0.914,-2.903 1.326,-4.361c0.808,-2.797 -0.6,-5.76 -3.284,-6.897c-2.681,-1.136 -5.786,-0.09 -7.235,2.43c-31.321,52.366 -97.116,77.858 -159.355,57.808c-72.087,-23.223 -112.391,-98.854 -89.845,-168.841c16.506,-51.237 62.145,-85.274 113.679,-90.716c2.512,-0.237 4.477,-2.371 4.507,-4.942c0.031,-2.571 -1.883,-4.751 -4.437,-5.054Zm-0.523,4.414c0.297,0.035 0.52,0.289 0.516,0.587c-0.003,0.299 -0.232,0.547 -0.529,0.575c-53.253,5.624 -100.387,40.828 -117.443,93.773c-23.287,72.287 18.256,150.449 92.712,174.434c64.281,20.708 132.212,-5.691 164.566,-59.814c0.328,-0.58 1.039,-0.822 1.653,-0.562c0.614,0.26 0.935,0.939 0.746,1.578c-0.399,1.413 -0.832,2.82 -1.285,4.226c-27.918,86.664 -120.944,134.358 -207.609,106.44c-86.664,-27.918 -134.358,-120.945 -106.44,-207.609c24.232,-75.222 97.515,-121.085 173.113,-113.628Zm143.556,211.969l0.081,-0.134c-0.025,0.046 -0.052,0.091 -0.081,0.134Z" style="fill:#efecf1;"/></svg>