<?xml version="1.0" encoding="UTF-8" standalone="no"?><!DOCTYPE svg PUBLIC "-//W3C//DTD SVG 1.1//EN" "http://www.w3.org/Graphics/SVG/1.1/DTD/svg11.dtd"><svg width="100%" height="100%" viewBox="0 0 812 212" version="1.1" xmlns="http://www.w3.org/2000/svg" xmlns:xlink="http://www.w3.org/1999/xlink" xml:space="preserve" xmlns:serif="http://www.serif.com/" style="fill-rule:evenodd;clip-rule:evenodd;stroke-linejoin:round;stroke-miterlimit:2;"><path d="M4.235,11.735c0,-0 258.625,79.476 397.86,198.821c2.515,2.155 6.305,1.863 8.461,-0.651c2.155,-2.515 1.863,-6.305 -0.651,-8.461c-140.765,-120.655 -402.14,-201.179 -402.14,-201.179c-3.166,-0.974 -6.526,0.805 -7.5,3.97c-0.974,3.166 0.805,6.526 3.97,7.5Z" style="fill:#35393e;"/><path d="M804.235,0.265c0,0 -261.375,80.524 -402.14,201.179c-2.514,2.156 -2.806,5.946 -0.651,8.461c2.156,2.514 5.946,2.806 8.461,0.651c139.235,-119.345 397.86,-198.821 397.86,-198.821c3.165,-0.974 4.944,-4.334 3.97,-7.5c-0.974,-3.165 -4.334,-4.944 -7.5,-3.97Z" style="fill:#35393e;"/></svg>